<svg width="33" height="22" viewBox="0 0 33 22" fill="none" xmlns="http://www.w3.org/2000/svg">
<path d="M10.5191 2.87068C10.6209 2.42034 11.2625 2.42034 11.3642 2.87068L12.2964 6.99727C12.3604 7.28049 12.6794 7.42182 12.9321 7.27893L15.1577 6.0207C15.5145 5.81901 15.9259 6.17959 15.7727 6.55972L14.7125 9.1909C14.6127 9.4385 14.7585 9.71655 15.0189 9.77537L19.2173 10.7237C19.6676 10.8254 19.6676 11.4671 19.2173 11.5688L15.0079 12.5197C14.7513 12.5776 14.6052 12.8491 14.6981 13.0952L15.4557 15.102C15.5874 15.4508 15.2462 15.7919 14.8974 15.6603L12.8906 14.9027C12.6445 14.8098 12.373 14.9559 12.3151 15.2125L11.3642 19.4219C11.2625 19.8722 10.6209 19.8722 10.5191 19.4219L9.57078 15.2235C9.51196 14.9631 9.23391 14.8173 8.98631 14.9171L6.35513 15.9773C5.975 16.1305 5.61442 15.7191 5.81611 15.3623L7.07434 13.1367C7.21723 12.884 7.0759 12.5649 6.79268 12.501L2.66609 11.5688C2.21575 11.4671 2.21575 10.8254 2.66609 10.7237L6.81893 9.78566C7.09415 9.72349 7.23744 9.419 7.10991 9.1673L5.80486 6.59168C5.61564 6.21823 6.01364 5.82023 6.38709 6.00945L8.96271 7.3145C9.21441 7.44203 9.5189 7.29874 9.58107 7.02352L10.5191 2.87068Z" fill="#7A6DF0"/>
<path d="M25.912 1.29547C25.9824 0.983607 26.4268 0.983606 26.4972 1.29547L26.9927 3.48897C27.037 3.68511 27.2579 3.78298 27.433 3.68402L28.5887 3.03063C28.8358 2.89095 29.1207 3.14066 29.0146 3.4039L28.4537 4.79591C28.3846 4.96738 28.4856 5.15993 28.6659 5.20066L30.9091 5.70737C31.221 5.77782 31.221 6.22218 30.9091 6.29263L28.6583 6.80105C28.4806 6.8412 28.3794 7.02919 28.4437 7.19964L28.8397 8.24846C28.9309 8.49002 28.6946 8.72628 28.4531 8.63509L27.4042 8.23913C27.2338 8.17479 27.0458 8.27598 27.0056 8.4537L26.4972 10.7045C26.4268 11.0164 25.9824 11.0164 25.912 10.7045L25.4052 8.46129C25.3645 8.28097 25.172 8.18004 25.0005 8.24913L23.6085 8.81002C23.3452 8.91609 23.0955 8.63118 23.2352 8.38411L23.8886 7.22837C23.9876 7.05334 23.8897 6.83241 23.6936 6.7881L21.5001 6.29263C21.1882 6.22218 21.1882 5.77782 21.5001 5.70737L23.7117 5.20779C23.9023 5.16474 24.0016 4.95387 23.9132 4.77957L23.2274 3.42604C23.0964 3.16742 23.372 2.89179 23.6306 3.02284L24.9842 3.70866C25.1585 3.79698 25.3693 3.69775 25.4124 3.50715L25.912 1.29547Z" fill="#7A6DF0"/>
</svg>
