<svg width="15" height="15" viewBox="0 0 15 15" fill="none" xmlns="http://www.w3.org/2000/svg">
<path d="M7.16683 0.76794C7.24703 0.412862 7.75297 0.41286 7.83317 0.767938L8.56813 4.02161C8.61857 4.24492 8.87011 4.35636 9.0694 4.24369L10.8242 3.25162C11.1055 3.09259 11.4299 3.3769 11.3091 3.67662L10.4732 5.75122C10.3945 5.94644 10.5094 6.16567 10.7147 6.21205L14.025 6.9598C14.3801 7.04 14.3801 7.54593 14.025 7.62614L10.7061 8.37584C10.5037 8.42155 10.3885 8.63558 10.4618 8.82965L11.0591 10.4119C11.1629 10.6869 10.8939 10.9559 10.6189 10.8521L9.03668 10.2548C8.84261 10.1815 8.62858 10.2967 8.58287 10.4991L7.83317 13.818C7.75297 14.1731 7.24703 14.1731 7.16683 13.818L6.41908 10.5077C6.37271 10.3024 6.15348 10.1875 5.95825 10.2661L3.88365 11.1021C3.58393 11.2228 3.29963 10.8984 3.45866 10.6172L4.45072 8.86237C4.56339 8.66308 4.45195 8.41154 4.22864 8.3611L0.974971 7.62614C0.619893 7.54594 0.619892 7.04 0.974969 6.9598L4.24934 6.22017C4.46635 6.17115 4.57932 5.93106 4.47877 5.73261L3.44978 3.70182C3.30058 3.40736 3.6144 3.09355 3.90885 3.24275L5.93964 4.27174C6.1381 4.37229 6.37818 4.25932 6.4272 4.04231L7.16683 0.76794Z" fill="#6E7781"/>
</svg>
