<svg width="63" height="24" viewBox="0 0 63 24" fill="none" xmlns="http://www.w3.org/2000/svg">
<path d="M58.2694 4.66791C58.2694 4.28391 58.1494 3.87591 57.9334 3.49191C57.6934 3.13191 57.4054 2.79591 57.0694 2.45991C56.7094 2.17191 56.3254 1.88391 55.8934 1.64391C55.4374 1.42791 55.0054 1.25991 54.5734 1.11591C54.9094 1.01991 55.2934 0.947908 55.7494 0.875907C56.1814 0.827908 56.6614 0.779907 57.1654 0.779907C57.6454 0.779907 58.1254 0.827908 58.6534 0.875907C59.1334 0.947908 59.6134 1.04391 60.0694 1.18791C60.4774 1.33191 60.7894 1.52391 61.0294 1.71591C61.2214 1.93191 61.3894 2.14791 61.4854 2.38791C61.5814 2.62791 61.6294 2.89191 61.6534 3.13191V3.92391V13.5239C61.6534 14.2679 61.4854 14.8439 61.1974 15.2519C60.8854 15.6839 60.4534 16.0919 59.9254 16.4279C59.3734 16.7879 58.7254 17.1479 57.9814 17.5319C57.2134 17.9159 56.3974 18.4439 55.5094 19.0679C55.3654 19.1639 55.2694 19.2599 55.1734 19.3799C55.0534 19.4759 54.9814 19.5959 54.9574 19.7159C54.9094 19.8119 54.9334 19.9079 55.0294 20.0039C55.0774 20.0759 55.2214 20.1239 55.4374 20.1479C55.7254 20.1719 56.0614 20.1719 56.4454 20.1719C56.7814 20.1239 57.1414 20.0999 57.5014 20.0519C57.8374 19.9799 58.1974 19.9079 58.5334 19.8599C58.8454 19.7639 59.1334 19.6919 59.4214 19.6199C59.7094 19.5239 59.9974 19.4759 60.3334 19.4519C60.6214 19.4039 60.9094 19.4279 61.1734 19.5239C61.4134 19.5719 61.6294 19.7159 61.8214 19.9079C61.9654 20.0999 62.0614 20.3639 62.0614 20.7239C62.0614 21.1079 61.9654 21.4679 61.7734 21.8039C61.5814 22.1159 61.1734 22.4039 60.5734 22.6919C60.1174 22.8839 59.6134 23.0759 59.0374 23.2199C58.4374 23.3639 57.6934 23.4359 56.7814 23.4359C56.0614 23.4359 55.4374 23.3639 54.8854 23.2679C54.3094 23.1479 53.8294 23.0039 53.4214 22.8359C53.0374 22.6679 52.7254 22.4759 52.5334 22.2359C52.2934 21.9959 52.1734 21.7319 52.1254 21.4439C52.0774 21.1559 52.1014 20.8679 52.2214 20.5799C52.3174 20.2679 52.5094 19.9799 52.7974 19.6919C53.4694 19.0199 54.2134 18.4199 55.0294 17.8919C55.8214 17.4119 56.6614 16.8839 57.5254 16.3079C57.8614 16.0919 58.0774 15.8519 58.1734 15.6119C58.2214 15.3719 58.2694 15.0119 58.2694 14.4839V4.66791ZM49.7494 13.9319C49.4134 14.2679 49.1254 14.5079 48.8614 14.6759C48.5734 14.8679 48.3334 14.9879 48.0934 15.0599C47.8294 15.1559 47.5894 15.2279 47.3494 15.2279C47.0854 15.2519 46.8214 15.2519 46.5814 15.2279C46.1974 15.2039 45.8134 15.1319 45.4294 14.9879C45.0214 14.8919 44.7094 14.6999 44.4934 14.4119C44.6854 14.4839 44.9494 14.4359 45.2614 14.2679C45.5494 14.1239 45.8854 13.9079 46.2214 13.5959C46.5574 13.3079 46.8934 12.9719 47.2534 12.5639C47.5894 12.1799 47.9254 11.7479 48.2374 11.2919C48.5254 10.8599 48.8134 10.4039 49.0534 9.92391C49.2694 9.49191 49.4374 9.05991 49.5574 8.62791C49.7494 7.90791 49.7014 7.37991 49.4614 7.01991C49.1734 6.68391 48.7654 6.44391 48.1894 6.29991C48.3814 6.10791 48.6454 5.93991 48.9334 5.79591C49.2214 5.67591 49.5334 5.57991 49.8694 5.53191C50.1814 5.48391 50.5174 5.48391 50.8534 5.50791C51.1894 5.55591 51.5014 5.65191 51.8134 5.77191C52.5094 6.08391 52.9414 6.51591 53.0854 7.06791C53.2054 7.64391 53.1094 8.29191 52.8214 9.05991C52.5574 9.73191 52.2454 10.3799 51.8614 11.0039C52.1734 10.9559 52.5094 10.9319 52.8694 10.9079C53.2054 10.9079 53.5414 10.9079 53.8774 10.9559C54.1894 11.0039 54.4774 11.0759 54.7654 11.1719C55.0294 11.2919 55.2454 11.4359 55.4374 11.6039C55.5814 11.7959 55.7254 11.9879 55.8214 12.1799C55.9174 12.3959 55.9654 12.6119 55.9654 12.8039C55.9654 13.0439 55.9174 13.2359 55.8454 13.4279C55.7494 13.6439 55.5814 13.8119 55.3894 13.9319C54.9814 14.2199 54.5734 14.2679 54.1894 14.1239C53.7574 14.0039 53.3734 13.7159 53.0134 13.2359C52.7254 12.9239 52.4614 12.6359 52.1974 12.3959C51.9094 12.1799 51.6214 11.9879 51.3574 11.8439C51.0454 12.3239 50.7574 12.7319 50.4934 13.0679C50.2054 13.4519 49.9414 13.7399 49.7494 13.9319Z" fill="#24292F"/>
<path d="M29.5081 15.18C28.9321 15.372 28.4281 15.564 27.9961 15.756C27.5161 15.948 27.0841 16.092 26.7001 16.188C26.2681 16.308 25.8841 16.356 25.5241 16.308C25.1401 16.284 24.7321 16.14 24.3241 15.876C24.1561 15.78 23.9881 15.66 23.8201 15.468C23.6281 15.324 23.4361 15.108 23.2921 14.868C23.1001 14.628 22.9561 14.364 22.8601 14.028C22.7401 13.74 22.6921 13.404 22.6921 13.02C23.4841 13.164 24.2761 13.236 25.0921 13.236C25.8601 13.236 26.6761 13.188 27.4921 13.068C28.2841 12.972 29.1001 12.828 29.9161 12.636C30.7321 12.444 31.5481 12.252 32.3881 12.012C32.4601 11.988 32.5561 11.964 32.6521 11.94C32.7241 11.94 32.8201 11.916 32.9161 11.868C33.1321 11.652 33.3241 11.412 33.4681 11.172C33.6121 10.956 33.6841 10.716 33.6841 10.476C33.6841 10.188 33.5401 9.94797 33.3001 9.75597C32.8681 9.61197 32.4121 9.41997 31.9561 9.17997C31.4761 8.93997 31.0681 8.67597 30.7081 8.33997C30.3241 8.02797 30.0361 7.66797 29.7961 7.28397C29.5561 6.89997 29.4361 6.51597 29.4361 6.08397C29.4361 5.79597 29.4841 5.50797 29.6281 5.21996C29.7241 4.95597 29.8921 4.69197 30.0841 4.42797C30.2761 4.18797 30.4921 3.97197 30.7321 3.73197L31.3801 3.15597C31.3801 2.86797 31.4041 2.50797 31.4041 2.05197C31.3801 1.61997 31.3081 1.13997 31.2121 0.563965C31.6441 0.707966 32.0281 0.899965 32.4121 1.13997C32.7481 1.37997 33.0601 1.64397 33.3241 1.93197C33.5641 2.21996 33.7561 2.53197 33.9001 2.81997C34.0441 3.13197 34.1161 3.41997 34.1161 3.70797C34.1161 3.94797 34.0441 4.13997 33.9481 4.30797C33.8281 4.49997 33.7081 4.69197 33.5881 4.85997C33.4441 5.05197 33.3001 5.21996 33.2041 5.38797C33.0841 5.57997 33.0361 5.79597 33.0361 6.01197C33.0361 6.22796 33.0841 6.41996 33.2041 6.58797C33.3001 6.77996 33.4441 6.94797 33.6361 7.09197C33.8041 7.23597 33.9961 7.35597 34.2121 7.42797C34.4041 7.52396 34.6201 7.54797 34.8121 7.54797C35.0281 7.54797 35.2201 7.47597 35.4121 7.33197C35.5801 7.21197 35.7241 7.04397 35.8681 6.82797C35.9881 6.63596 36.0841 6.41997 36.1561 6.15597C36.2041 5.91597 36.2521 5.69997 36.2521 5.45997C36.2521 4.73997 36.0841 4.18797 35.7721 3.80397C35.4361 3.41997 35.0281 3.17997 34.5481 3.05997C34.7641 2.74797 35.0281 2.48397 35.3641 2.29197C35.6521 2.09997 36.0601 2.00396 36.5881 2.00396C36.8281 2.00396 37.1401 2.05197 37.4761 2.12396C37.7881 2.21996 38.1001 2.38797 38.4121 2.60397C38.7001 2.84397 38.9401 3.17997 39.1561 3.58797C39.3481 4.01997 39.4441 4.54797 39.4441 5.19597C39.4441 5.62797 39.3721 6.05997 39.2761 6.49197C39.1321 6.92397 38.9641 7.33197 38.7481 7.71597C38.5081 8.12397 38.2201 8.48397 37.8841 8.79597C37.5481 9.13197 37.1641 9.39596 36.7321 9.58797C36.7801 9.77996 36.8041 9.97197 36.8041 10.188C36.8041 10.452 36.7561 10.716 36.6841 11.004C37.5241 10.836 38.3161 10.692 39.0361 10.596C39.7561 10.524 40.3561 10.476 40.8841 10.476C41.7961 10.476 42.4921 10.644 42.9721 10.956C43.4281 11.292 43.6681 11.796 43.6681 12.492C43.6681 12.996 43.5481 13.356 43.3081 13.596C43.0441 13.836 42.7321 14.004 42.3481 14.076C41.9641 14.172 41.5321 14.172 41.0761 14.124C40.5961 14.076 40.1401 14.004 39.7081 13.908C39.4681 13.86 39.2521 13.836 39.0361 13.788C38.7961 13.788 38.5801 13.764 38.3641 13.716C37.8361 14.1 37.3321 14.508 36.8521 14.916L35.4121 16.212C35.8441 16.26 36.3001 16.356 36.7321 16.476C37.1641 16.62 37.5481 16.812 37.9081 17.052C38.2441 17.316 38.5321 17.628 38.7721 18.012C38.9641 18.42 39.0841 18.9 39.0841 19.428C39.0841 20.076 38.9401 20.652 38.6761 21.156C38.3881 21.636 38.0281 22.068 37.5961 22.404C37.1401 22.74 36.6361 22.98 36.0841 23.172C35.5081 23.34 34.9561 23.436 34.4041 23.436C33.7561 23.436 33.1561 23.34 32.6041 23.172C32.0281 22.98 31.5481 22.74 31.1641 22.428C30.7321 22.092 30.4201 21.708 30.2041 21.276C29.9641 20.796 29.8441 20.292 29.8441 19.716C29.8441 19.332 29.8921 19.02 30.0361 18.732C30.1321 18.444 30.3001 18.18 30.5401 17.916C30.7561 17.676 31.0441 17.412 31.4041 17.172C31.7401 16.932 32.1241 16.692 32.6041 16.404C33.1321 16.092 33.8041 15.684 34.5961 15.156C35.3641 14.652 36.1561 14.148 37.0201 13.644C35.7241 13.644 34.4761 13.812 33.2521 14.1C32.0041 14.412 30.7561 14.772 29.5081 15.18ZM35.8201 19.308C35.8201 19.164 35.7961 19.02 35.7721 18.828C35.7241 18.66 35.6281 18.492 35.5081 18.3C35.3641 18.156 35.1481 17.988 34.9081 17.844C34.6201 17.7 34.2601 17.604 33.8281 17.508C33.3961 17.748 33.0841 18.012 32.8681 18.3C32.6281 18.612 32.5321 18.972 32.5321 19.404C32.5321 19.932 32.7001 20.268 33.0361 20.46C33.3721 20.604 33.8041 20.7 34.3321 20.7C34.6921 20.7 35.0281 20.604 35.3641 20.412C35.6521 20.22 35.8201 19.836 35.8201 19.308Z" fill="#24292F"/>
<path d="M17.4747 7.04391C17.8107 6.87591 18.1227 6.68391 18.3867 6.46791C19.0107 6.01191 19.6827 5.77191 20.3787 5.77191C20.5707 5.77191 20.7627 5.81991 21.0027 5.86791C21.2187 5.96391 21.4107 6.05991 21.6027 6.20391C21.7707 6.37191 21.9147 6.56391 22.0587 6.75591C22.1547 6.99591 22.2267 7.23591 22.2267 7.52391C22.2267 7.81191 22.1307 8.09991 21.9627 8.38791C21.7707 8.67591 21.3387 8.98791 20.6907 9.27591C20.2587 9.46791 19.8507 9.63591 19.4427 9.77991C19.0107 9.92391 18.5787 10.0919 18.1227 10.2839L18.9147 9.05991C18.6267 9.10791 18.3867 9.13191 18.1707 9.17991C17.9307 9.22791 17.6907 9.27591 17.4747 9.32391V12.8039C18.4587 12.3239 19.3227 12.0599 20.0667 12.0599C20.4747 12.0599 20.8587 12.1799 21.2427 12.4199C21.6027 12.6599 21.8907 12.9719 22.1307 13.3079C22.3227 13.6679 22.4427 14.0279 22.4667 14.4119C22.4667 14.8199 22.3467 15.1799 22.0827 15.4679C21.8427 15.7319 21.5787 15.8279 21.2427 15.7799C20.9067 15.7559 20.5707 15.6359 20.2347 15.4199C19.4667 14.9639 18.5307 14.8199 17.4747 15.0119V18.9959C17.4747 19.9079 17.3787 20.6519 17.2347 21.2279C17.0667 21.8039 16.8267 22.2359 16.5147 22.5719C16.1787 22.8839 15.7467 23.0999 15.2667 23.2199C14.7387 23.3159 14.1387 23.3399 13.4667 23.2919C13.5627 23.0999 13.6587 22.8599 13.7547 22.5479C13.8267 22.2119 13.8987 21.8519 13.9467 21.4679C13.9947 21.0839 14.0187 20.6759 14.0667 20.2919C14.0667 19.8839 14.0907 19.5239 14.0907 19.2119V4.66791C14.0907 4.28391 13.9707 3.87591 13.7547 3.49191C13.5147 3.13191 13.2267 2.79591 12.8907 2.45991C12.5307 2.17191 12.1467 1.88391 11.7147 1.64391C11.2587 1.42791 10.8267 1.25991 10.3947 1.11591C10.7307 1.01991 11.1147 0.947908 11.5707 0.875907C12.0027 0.827908 12.4827 0.779907 12.9867 0.779907C13.4667 0.779907 13.9467 0.827908 14.4747 0.875907C14.9547 0.947908 15.4347 1.04391 15.8907 1.18791C16.2987 1.33191 16.6107 1.52391 16.8507 1.71591C17.0427 1.93191 17.2107 2.14791 17.3067 2.38791C17.4027 2.62791 17.4507 2.89191 17.4747 3.13191V3.92391V7.04391ZM12.5067 11.8199C12.6027 12.2039 12.6507 12.5879 12.6747 12.9479C12.6747 13.3319 12.6267 13.6919 12.5547 13.9799C12.4587 14.3159 12.3147 14.5799 12.1227 14.7959C11.9307 15.0359 11.6907 15.1799 11.4027 15.2519C10.9467 15.3959 10.5147 15.4919 10.1307 15.5399C9.72272 15.6359 9.33872 15.7079 8.95472 15.8039C8.57072 15.8999 8.18672 16.0199 7.80272 16.1639C7.39472 16.3079 6.96272 16.4999 6.53072 16.7399C6.19472 16.9319 5.93072 17.0759 5.69072 17.1719C5.45072 17.3159 5.11472 17.3639 4.73072 17.3639C4.25072 17.3639 3.89072 17.2679 3.65072 17.0279C3.36272 16.8359 3.19472 16.5719 3.12272 16.2359C3.02672 15.9479 3.05072 15.6119 3.17072 15.2519C3.26672 14.9159 3.45872 14.6279 3.77072 14.3879C3.67472 13.5719 3.57872 12.7559 3.45872 11.9639C3.31472 11.1959 3.12272 10.4039 2.83472 9.58791C2.64272 9.08391 2.40272 8.57991 2.11472 8.05191C1.77872 7.57191 1.39472 7.16391 0.938721 6.82791C1.80272 6.61191 2.64272 6.51591 3.45872 6.53991C4.25072 6.58791 4.94672 6.85191 5.54672 7.35591C5.85872 7.64391 6.07472 7.95591 6.21872 8.26791C6.33872 8.60391 6.41072 8.93991 6.45872 9.32391C6.50672 9.92391 6.53072 10.6199 6.55472 11.3879V13.6919C7.13072 13.5719 7.73072 13.4279 8.40272 13.2839C9.05072 13.1399 9.67472 12.9959 10.2507 12.8279C10.8027 12.6839 11.2827 12.5159 11.7147 12.3239C12.1227 12.1799 12.3867 12.0119 12.5067 11.8199Z" fill="#24292F"/>
</svg>
