<svg width="36" height="36" viewBox="0 0 36 36" fill="none" xmlns="http://www.w3.org/2000/svg">
<circle cx="17.9107" cy="16.9107" r="10.9107" fill="url(#paint0_linear_405_3807)"/>
<mask id="mask0_405_3807" style="mask-type:alpha" maskUnits="userSpaceOnUse" x="7" y="6" width="22" height="22">
<circle cx="17.9107" cy="16.9107" r="10.9107" fill="#D9D9D9"/>
</mask>
<g mask="url(#mask0_405_3807)">
<path d="M21.1708 17.7101C22.3265 12.4464 28.5012 10.5956 31.4441 10.3281V19.3148L26.3074 26.3758L16.6762 29.1039L7.84751 24.2896C10.5443 16.9719 17.8533 16.8542 21.1708 17.7101Z" fill="#FFC800"/>
<path d="M14.1905 21.6189C13.2771 17.4578 8.39712 15.9946 6.07129 15.7832V22.8875L10.1309 28.4695L17.7427 30.6262L24.7202 26.8203C22.5889 21.0353 16.8124 20.9423 14.1905 21.6189Z" fill="#FFAB43"/>
</g>
<path d="M27.6308 28.0011L25.8572 24.4062C25.8572 24.4062 21.7162 25.4575 17.9667 25.4575C14.2172 25.4575 9.90535 24.4062 9.90535 24.4062L8.19336 28.0014C8.0394 28.3247 8.20485 28.7053 8.55081 28.7978C9.96488 29.1757 13.5554 30.0002 17.9667 30.0002C22.3604 30.0002 25.8817 29.1823 27.2804 28.8023C27.6276 28.708 27.79 28.3237 27.6308 28.0011Z" fill="#FFC800"/>
<path d="M20.4786 13.6458L19.0941 15.6295C19.8084 15.984 20.6428 15.9433 21.4272 16.0571C21.9163 16.1252 22.414 16.2179 22.8965 16.3147C22.5564 16.4625 22.1182 16.512 21.7492 16.57C21.3009 16.6323 19.2713 16.736 19.0801 17.0393C19.0365 17.1047 19.0568 17.1397 19.1025 17.188C19.4465 17.7287 19.9321 18.2418 20.2492 18.8065C20.2899 18.8764 20.3541 18.9366 20.3309 19.037L18.5458 17.5955C18.4149 17.7918 18.3128 18.0175 18.2647 18.2557C18.0573 19.273 18.0542 20.3906 17.7996 21.4272C17.7846 21.4918 17.7918 21.6143 17.7091 21.6027C17.6402 21.1636 17.573 20.7173 17.5328 20.2773C17.4926 19.8373 17.4454 17.771 17.1599 17.5915L15.2913 18.9642L16.649 17.0347C16.5002 16.9096 16.3196 16.8601 16.1374 16.8179C15.1723 16.5941 14.0328 16.6624 13.0675 16.3781C13.0068 16.364 12.8601 16.3527 12.8733 16.2651C13.5339 16.1765 14.1911 16.0719 14.8466 15.9745C15.5021 15.8772 16.1261 15.9463 16.7118 15.6287L15.4392 13.6335L17.2242 15.075C17.5253 14.8502 17.6706 12.8739 17.7466 12.3928C17.8226 11.9117 17.9173 11.4727 17.9967 11.0075L18.1267 11.5817C18.1377 11.8714 18.1909 12.1633 18.2239 12.4506C18.2676 12.9368 18.2957 14.8399 18.6034 15.0775L20.4701 13.6515L20.4786 13.6458Z" fill="#FCFCFC"/>
<defs>
<linearGradient id="paint0_linear_405_3807" x1="17.9107" y1="6" x2="17.9107" y2="27.8214" gradientUnits="userSpaceOnUse">
<stop stop-color="#FFE833"/>
<stop offset="1" stop-color="white"/>
</linearGradient>
</defs>
</svg>
