<svg width="28" height="25" viewBox="0 0 28 25" fill="none" xmlns="http://www.w3.org/2000/svg">
<g clip-path="url(#clip0_333_2625)">
<path d="M8.58138 21.1774C8.58138 21.1774 3.59257 18.2118 4.75512 13.2484C4.75512 13.2484 5.46619 9.73248 8.35 7.32555C8.35 7.32555 9.078 2.68663 10.7202 2.50321C12.3597 2.3198 13.0905 6.65397 13.0905 6.65397H16.138C16.138 6.65397 16.866 2.39317 18.6888 2.2154C20.5116 2.03763 21.1494 7.23243 21.1494 7.23243C21.1494 7.23243 24.6342 10.1981 24.6624 13.8861C24.7019 19.4449 20.0658 21.1774 20.0658 21.1774C20.0658 21.1774 15.5087 24.1854 8.5842 21.1774H8.58138Z" fill="#0D1926"/>
<path d="M16.1887 6.93836L16.5527 5.69397L16.9647 4.42702L17.6476 3.28704L18.6775 2.51953L19.8231 3.22778L20.3423 4.58504L20.6866 6.00436L20.8474 7.49424L19.7554 6.94118L18.6747 6.39941L17.4331 6.7098L16.1887 6.93836Z" fill="#F2F4F7"/>
<path d="M8.42358 7.67354L8.70576 6.23446L9.10362 4.81795L9.699 3.47763L10.7289 2.45898L11.8576 3.00922L12.5602 4.07866L12.9666 5.292L13.3616 6.51098L11.9197 6.34732L10.5004 6.12723L9.47609 6.91449L8.42358 7.67354Z" fill="#F2F4F7"/>
<path d="M20.3455 18.2123L19.8404 19.609L18.7597 20.5882L17.473 21.2569L16.0819 21.6971L14.6202 21.7733L13.1811 21.573L11.7223 21.3698L10.5146 20.5374L9.41696 19.5949L9.0332 18.2123L9.52418 16.8945L10.5118 15.8843L11.7618 15.1535L13.1586 14.7162L14.6202 14.7133L16.0903 14.6738L17.473 15.1676L18.723 15.8928L19.815 16.8324L20.3455 18.2123Z" fill="#F2F4F7"/>
<path d="M15.9231 15.3236L15.6494 15.6622L15.2516 15.8541L14.8085 15.9106L14.3909 15.8231L13.9818 15.6764L13.7448 15.3236L14.2103 15.0048L14.8085 14.9512L15.4378 14.9709L15.9231 15.3236Z" fill="black"/>
<path d="M8.78987 20.9133C8.47101 20.7073 8.15216 20.5013 7.8333 20.2953C7.78533 20.2643 7.73172 20.2332 7.68375 20.1994C7.70914 20.2191 7.74583 20.2755 7.69504 20.1937C7.58217 20.0131 7.39311 19.8495 7.25202 19.6915C7.12787 19.5504 7.00653 19.4065 6.87956 19.271C6.80619 19.192 6.9501 19.3641 6.8852 19.2795C6.82877 19.2118 6.77797 19.1384 6.72436 19.0707C6.51273 18.7941 6.29264 18.5233 6.08947 18.2439C5.85809 17.925 5.64082 17.5949 5.4179 17.2732C5.40662 17.2563 5.29939 17.1011 5.35018 17.1914C5.40097 17.2817 5.33043 17.118 5.31914 17.0898L5.09905 16.4211C5.04826 16.2659 4.99747 16.1135 4.94667 15.9583C4.95796 15.9922 4.95514 16.0684 4.94667 15.947C4.94103 15.8426 4.92974 15.7354 4.91846 15.631L4.8592 14.9312C4.85356 14.8607 4.85073 14.7901 4.84227 14.7196C4.83098 14.6377 4.7943 14.8437 4.84227 14.7055C5.09905 14.0311 5.22603 13.2805 5.37558 12.5751C5.40944 12.4142 5.44894 12.2562 5.47716 12.0954C5.46023 12.1913 5.4433 12.1715 5.4828 12.0841C5.52513 11.991 5.56463 11.895 5.60696 11.8019C5.7424 11.4972 5.85809 11.1755 6.01329 10.8792C6.32086 10.2923 6.72718 9.7364 7.12223 9.20309L7.49469 8.70082C7.52573 8.6585 7.55677 8.60771 7.59345 8.5682C7.52291 8.64439 7.55959 8.60488 7.62731 8.56256C7.96874 8.34246 8.31864 8.03207 8.61492 7.75555C8.86605 7.51852 8.85759 7.01343 8.91684 6.69175C8.9761 6.37008 9.04664 6.07097 9.15105 5.75776C9.405 5.00436 9.67025 4.2566 9.93831 3.51167L9.77747 3.7233C10.1499 3.44112 10.5224 3.15895 10.8921 2.87678H10.5365L11.0726 3.23232L11.4141 3.45805C11.4423 3.47781 11.479 3.51167 11.5128 3.52295C11.6257 3.56246 11.4366 3.41855 11.4338 3.4383C11.4254 3.48063 11.5326 3.61043 11.5552 3.64993L11.7865 4.05344C11.874 4.20581 11.9728 4.35536 12.049 4.51056C12.2296 4.87738 12.4243 5.28936 12.5456 5.67875C12.4892 5.4897 12.5456 5.76341 12.5541 5.80291L12.6302 6.17538L12.7629 6.81873C12.7939 6.96546 12.9547 7.08115 13.1043 7.07833C14.1286 7.05858 15.1246 7.07833 16.1461 7.13477C16.2928 7.14323 16.4537 7.01907 16.4875 6.87517C16.6851 5.98068 16.8826 5.13698 17.2579 4.29611C17.1845 4.46259 17.2946 4.24532 17.3228 4.19735L17.5372 3.81359C17.5767 3.74023 17.9153 3.26336 17.8786 3.20128C17.9718 3.36212 17.6642 3.33954 17.7996 3.29439C17.8391 3.28311 17.8843 3.24078 17.9182 3.21821L18.2822 2.984L18.8691 2.60589H18.5135L19.2613 3.12509C19.3798 3.20692 19.4955 3.30568 19.6225 3.37622C19.7495 3.44677 19.5322 3.36494 19.5548 3.29439C19.5491 3.31415 19.6197 3.41009 19.6281 3.42419L20.184 4.43155C20.2066 4.47388 20.232 4.5162 20.2545 4.55853C20.2997 4.646 20.2291 4.45412 20.2404 4.53313C20.2602 4.67986 20.2828 4.82941 20.3053 4.97614C20.3928 5.56589 20.4887 6.1387 20.6157 6.72279C20.675 6.98521 20.6863 7.39436 20.8669 7.60882C21.0644 7.84302 21.3578 8.0349 21.5864 8.23524C21.9899 8.58513 22.3849 9.00557 22.6925 9.44012C22.5796 9.2821 22.7461 9.58402 22.7687 9.62917L23.0537 10.1935C23.1496 10.3854 23.2456 10.5688 23.3584 10.7494C23.5334 11.0372 23.7309 11.3222 23.8889 11.6185C23.8946 11.6298 23.8607 11.5 23.8748 11.6044C23.8833 11.6693 23.903 11.737 23.9143 11.7991L24.0328 12.3832C24.0611 12.5214 24.0921 12.6597 24.1175 12.798C24.126 12.8375 24.1034 12.6653 24.1118 12.7641C24.1175 12.8431 24.126 12.9249 24.1316 13.004C24.157 13.3285 24.1993 13.6558 24.2106 13.9803C24.2247 14.4769 24.2134 14.9989 24.1485 15.4927C24.1006 15.8426 24.0752 16.201 24.0074 16.548C23.9877 16.6525 24.0328 16.4549 24.0074 16.5114C23.9849 16.565 23.9679 16.6214 23.9454 16.675L23.7478 17.2083C23.6914 17.3551 23.6096 17.5131 23.5785 17.6655C23.5475 17.8178 23.5926 17.5808 23.6434 17.578C23.6237 17.578 23.5644 17.6739 23.5531 17.688C23.3218 17.9674 23.0904 18.2439 22.8618 18.5261C22.7094 18.7151 22.5684 18.9127 22.4244 19.1074L22.0943 19.5532C22.083 19.5701 21.9814 19.6773 21.9843 19.7027C21.9814 19.6661 22.1846 19.556 22.0407 19.6322C21.5243 19.9059 21.0841 20.2925 20.5593 20.5577C20.0344 20.823 19.5096 21.1334 18.9904 21.4663C18.9283 21.5058 18.8493 21.5453 18.7901 21.5933C18.7449 21.6328 18.68 21.63 18.8126 21.5933C18.6857 21.6272 18.5559 21.6469 18.4289 21.6723C18.1241 21.7344 17.8222 21.7993 17.5175 21.8585C17.2127 21.9178 16.9052 21.9742 16.6004 22.0307C16.4791 22.0532 16.3577 22.0758 16.2364 22.0984C16.3041 22.0843 16.338 22.0843 16.2505 22.0984C16.1743 22.1097 16.0953 22.1181 16.0191 22.1294C15.4209 22.2084 14.8453 22.2705 14.2443 22.2959C14.0862 22.3015 13.9057 22.2874 13.7505 22.3185C13.6715 22.3326 13.6884 22.3185 13.7702 22.3326C13.7222 22.3241 13.6771 22.31 13.632 22.3015C13.2764 22.2197 12.9181 22.1379 12.5625 22.0589C12.0941 21.9517 11.6229 21.8388 11.1517 21.7457C10.8102 21.6779 10.466 21.6215 10.1217 21.5623C10.0455 21.5481 9.79158 21.4776 9.94677 21.5453C9.82262 21.4917 9.70411 21.4127 9.58559 21.3478C9.32035 21.2039 9.05793 21.06 8.79269 20.9161C8.39482 20.6988 8.03647 21.3083 8.43715 21.5256C8.90274 21.7795 9.38243 22.1435 9.90727 22.2366C10.5224 22.3467 11.1347 22.4624 11.7442 22.5978C12.3537 22.7333 12.9011 22.8659 13.4824 22.99C13.9677 23.0945 14.5547 23.0098 15.0456 22.9618C16.2674 22.8405 17.4723 22.5865 18.6744 22.3411C19.2613 22.2197 19.6817 21.8247 20.1953 21.5284C20.6355 21.2744 21.1208 21.1051 21.5384 20.8201C21.8347 20.617 22.1536 20.4307 22.4386 20.2078C22.6643 20.0301 22.8223 19.7422 22.9916 19.5137C23.096 19.3726 23.2032 19.2315 23.3048 19.0876C23.3274 19.0537 23.4149 18.9493 23.3048 19.082C23.3359 19.0453 23.3641 19.0086 23.3951 18.9719C23.6293 18.6869 23.8664 18.4076 24.0977 18.1197C24.2586 17.9194 24.3263 17.6598 24.4138 17.42C24.5154 17.1463 24.6536 16.8641 24.7044 16.5763C24.806 16.0035 24.8737 15.4194 24.8906 14.8381C24.9076 14.2032 24.885 13.6022 24.8342 12.9673C24.8145 12.7218 24.775 12.4932 24.727 12.2534C24.6677 11.9627 24.6395 11.6354 24.5436 11.3561C24.4392 11.0513 24.1965 10.7607 24.03 10.4898C23.9087 10.2895 23.7958 10.0948 23.6914 9.88595C23.5475 9.59813 23.4233 9.2821 23.2512 9.01121C23.0791 8.74033 22.8392 8.52588 22.6361 8.29167C22.4781 8.10826 22.3313 7.9446 22.1507 7.78658L21.6993 7.39154C21.6513 7.34922 21.4397 7.10373 21.3719 7.10655C21.5102 7.1009 21.4397 7.33793 21.4397 7.1912C21.4397 7.13194 21.4086 7.05576 21.3973 6.99932L21.2619 6.38701C21.2111 6.15845 21.1547 5.92707 21.1152 5.69568C21.0221 5.10877 21.0249 4.49645 20.7371 3.97161C20.5536 3.63865 20.3843 3.29439 20.184 2.97272C20.0542 2.76391 19.8087 2.63975 19.6112 2.50149L18.8634 1.98229C18.7647 1.91457 18.6067 1.92021 18.5079 1.98229L17.921 2.3604C17.7319 2.48174 17.4808 2.59178 17.3199 2.75544C17.1591 2.9191 17.0632 3.18717 16.9559 3.38469C16.8487 3.58221 16.7133 3.79102 16.6117 4.00265C16.1997 4.85763 16.005 5.75776 15.8019 6.67765L16.1433 6.41805C15.1218 6.36161 14.1229 6.34468 13.1015 6.36161L13.4429 6.62121C13.3554 6.19513 13.3103 5.72672 13.1579 5.32039C13.0055 4.91407 12.8447 4.52185 12.6585 4.14373C12.4722 3.76562 12.2719 3.3734 12.032 3.05455C11.8938 2.87114 11.6455 2.75544 11.4564 2.63129L10.8921 2.256C10.7989 2.19392 10.6296 2.18546 10.5365 2.256C10.2036 2.50995 9.87059 2.76109 9.53762 3.01504C9.20466 3.269 9.15387 3.60761 9.02125 3.97725C8.78422 4.63471 8.50487 5.30346 8.33275 5.9835C8.28478 6.17256 8.25938 6.3729 8.22552 6.56478C8.1832 6.78769 8.09854 7.04165 8.09572 7.26739C8.0929 7.47055 8.04775 7.19966 8.15498 7.21942C8.1324 7.21377 8.02236 7.32664 8.0026 7.34357L7.37336 7.85713C6.86827 8.27192 6.48169 8.83627 6.12051 9.38086C5.88067 9.74204 5.63518 10.1117 5.42355 10.4898C5.24578 10.8087 5.12162 11.1642 4.97489 11.4972C4.70401 12.1123 4.65039 12.7754 4.4698 13.4188C4.35975 13.8138 4.15377 14.2653 4.13402 14.6744C4.11426 15.0836 4.20456 15.5209 4.24124 15.9244C4.2751 16.2743 4.42183 16.6045 4.52906 16.9346C4.64757 17.2958 4.7548 17.5469 4.96925 17.8573C5.42919 18.5233 5.89477 19.1976 6.42526 19.8128C6.70461 20.1373 6.98396 20.5464 7.32821 20.806C7.67246 21.0656 8.0675 21.2829 8.43433 21.5199C8.80115 21.757 9.1708 21.1559 8.78987 20.9104V20.9133Z" fill="#4B546D"/>
<path d="M1.86292 11.7373C1.86292 11.7373 2.04351 11.5539 2.04351 11.5567C2.05197 11.5651 4.09772 12.2565 4.11465 12.2706C4.11465 12.2706 4.18802 12.1944 4.19084 12.1944C4.20213 12.2057 5.91209 13.3061 5.93185 13.3259C5.93185 13.3259 6.12654 13.1284 6.12654 13.1312" stroke="#4B546D" stroke-width="0.798549" stroke-linecap="round" stroke-linejoin="round"/>
<path d="M0.528687 13.8331C0.528687 13.8331 0.59923 13.7598 0.602051 13.7598C0.627447 13.7852 3.02027 14.0363 3.04285 14.0617C3.04567 14.0645 3.30809 13.7908 3.31091 13.7936C3.33066 13.8134 5.31151 14.4878 5.33127 14.5075C5.33127 14.5075 5.53443 14.3015 5.53725 14.3015" stroke="#4B546D" stroke-width="0.798549" stroke-linecap="round" stroke-linejoin="round"/>
<path d="M2.04626 16.6414C2.04626 16.6414 2.63601 16.0432 2.64165 16.046C2.66987 16.0743 5.22917 16.1956 5.24892 16.2153C5.24892 16.2153 5.46338 15.9953 5.4662 15.9981" stroke="#4B546D" stroke-width="0.798549" stroke-linecap="round" stroke-linejoin="round"/>
<path d="M22.7804 13.9353C22.7804 13.9353 23.4435 13.2609 23.4491 13.2666C23.4745 13.292 27.3855 12.1012 27.408 12.1238C27.4109 12.1266 27.6422 11.8839 27.6451 11.8867" stroke="#4B546D" stroke-width="0.798549" stroke-linecap="round" stroke-linejoin="round"/>
<path d="M23.2035 15.1406C23.2035 15.1406 24.0444 14.2912 24.0472 14.2969C24.0669 14.3166 27.1342 14.0429 27.1483 14.057C27.1483 14.057 27.7239 13.4729 27.7267 13.4786" stroke="#4B546D" stroke-width="0.798549" stroke-linecap="round" stroke-linejoin="round"/>
<path d="M24.1371 16.0813C24.1371 16.0813 24.5096 15.7003 24.5152 15.7031C24.5265 15.7144 26.5497 16.4086 26.5609 16.4199C26.5609 16.4199 27.0689 15.9063 27.0717 15.9091" stroke="#4B546D" stroke-width="0.798549" stroke-linecap="round" stroke-linejoin="round"/>
<path d="M15.695 16.1503C15.52 16.0036 15.3169 15.8992 15.125 15.7835C14.9839 15.6989 14.8372 15.7045 14.6904 15.7722C14.6255 15.8004 14.5635 15.8343 14.4986 15.8653C14.3631 15.9331 14.157 16.0741 14.0216 16.1418C13.8551 16.2236 13.7959 16.4719 13.8946 16.6243C14.0047 16.7936 14.1994 16.8388 14.3771 16.7513C14.5747 16.6525 14.8456 16.4748 15.046 16.3817L14.9613 16.4184L14.9782 16.4128L14.8851 16.424H14.9021C14.871 16.4184 14.84 16.4156 14.8089 16.4099H14.8259C14.7977 16.4015 14.7694 16.3902 14.7412 16.3789C14.8315 16.4212 14.9162 16.4833 15.0008 16.5313C15.046 16.5567 15.0911 16.5849 15.1363 16.6131C15.1588 16.6272 15.1814 16.6413 15.204 16.6582C15.2125 16.6639 15.2209 16.6695 15.2294 16.6752C15.1391 16.6187 15.1758 16.6328 15.2012 16.6526C15.2745 16.7147 15.3507 16.757 15.4495 16.757C15.5369 16.757 15.6385 16.7175 15.6978 16.6526C15.8191 16.5228 15.8473 16.2801 15.6978 16.1532L15.695 16.1503Z" fill="black"/>
<path d="M14.0959 16.4702L13.6719 16.1875" stroke="black" stroke-width="0.648997" stroke-linecap="round" stroke-linejoin="bevel"/>
<path d="M15.5835 16.4702L16.0076 16.1875" stroke="black" stroke-width="0.648997" stroke-linecap="round" stroke-linejoin="bevel"/>
<path d="M7.18181 11.532L5.48877 10.1211L4.21899 10.4033" stroke="white" stroke-width="0.564345" stroke-linecap="round" stroke-linejoin="bevel"/>
<path d="M21.8549 11.532L23.5479 10.1211L24.6766 10.4033" stroke="white" stroke-width="0.564345" stroke-linecap="round" stroke-linejoin="bevel"/>
<path d="M22.0564 12.1148L22.2078 11.3364V10.7137L21.7535 10.4023H20.8451L19.7852 10.558L18.5739 10.8694L17.8169 11.1808L16.9084 11.6478L16.3028 12.2705L16 13.2046L16.3028 14.2944L17.0598 14.7614L17.9683 14.9171L18.8767 14.7614L20.088 14.2944L20.9965 13.6717L21.6021 12.8932L22.0564 12.1148Z" fill="black" stroke="white" stroke-width="0.564345" stroke-linecap="round" stroke-linejoin="bevel"/>
<path d="M7.12187 12.1148L6.97046 11.3364V10.7137L7.42469 10.4023H8.33315L9.39301 10.558L10.6043 10.8694L11.3613 11.1808L12.2698 11.6478L12.8754 12.2705L13.1783 13.2046L12.8754 14.2944L12.1184 14.7614L11.2099 14.9171L10.3015 14.7614L9.0902 14.2944L8.18174 13.6717L7.5761 12.8932L7.12187 12.1148Z" fill="black" stroke="white" stroke-width="0.564345" stroke-linecap="round" stroke-linejoin="bevel"/>
<path d="M13.2482 13.2246L14.659 13.3657L16.0699 13.2246" stroke="white" stroke-width="0.564345" stroke-linecap="round" stroke-linejoin="bevel"/>
</g>
<defs>
<clipPath id="clip0_333_2625">
<rect width="28" height="24.3019" fill="white" transform="translate(0 0.349609)"/>
</clipPath>
</defs>
</svg>
