<svg width="23" height="36" viewBox="0 0 23 36" fill="none" xmlns="http://www.w3.org/2000/svg">
<rect y="0.595703" width="22.0618" height="35.2988" rx="1.47078" fill="#7A6DF0"/>
<path d="M2.08044 32.3906L2.14682 33.4952L2.78975 32.9834C2.69871 33.0994 2.60009 33.2099 2.50147 33.3203C2.44268 33.3848 2.3213 33.486 2.27768 33.5523C2.26441 33.5725 2.25682 33.5836 2.26251 33.6094L3.45164 33.6812L2.26251 33.7695L2.78975 34.3936C2.71389 34.3439 2.64371 34.2832 2.57544 34.2261C2.47113 34.1377 2.30992 33.961 2.20561 33.8966C2.18475 33.8837 2.17337 33.8763 2.14682 33.8818L2.05579 35.003L1.98182 33.8818C1.95717 33.8763 1.94389 33.8837 1.92303 33.8966C1.76941 33.9923 1.55889 34.2316 1.40527 34.355C1.3939 34.3642 1.34459 34.3991 1.3389 34.3955L1.86613 33.7714L0.677002 33.683L1.86613 33.6112C1.86993 33.5854 1.86424 33.5744 1.85096 33.5541C1.78269 33.451 1.60251 33.2964 1.51148 33.1951C1.45079 33.1289 1.3901 33.0607 1.3389 32.9871L1.98182 33.4989L2.0482 32.4164L2.08044 32.3925V32.3906Z" fill="#B4ACFF"/>
<path d="M20.0814 32.3906L20.1478 33.4952L20.7907 32.9834C20.6997 33.0994 20.6011 33.2099 20.5025 33.3203C20.4437 33.3848 20.3223 33.486 20.2787 33.5523C20.2654 33.5725 20.2578 33.5836 20.2635 33.6094L21.4526 33.6812L20.2635 33.7695L20.7907 34.3936C20.7149 34.3439 20.6447 34.2832 20.5764 34.2261C20.4721 34.1377 20.3109 33.961 20.2066 33.8966C20.1857 33.8837 20.1743 33.8763 20.1478 33.8818L20.0568 35.003L19.9828 33.8818C19.9581 33.8763 19.9449 33.8837 19.924 33.8966C19.7704 33.9923 19.5599 34.2316 19.4063 34.355C19.3949 34.3642 19.3456 34.3991 19.3399 34.3955L19.8671 33.7714L18.678 33.683L19.8671 33.6112C19.8709 33.5854 19.8652 33.5744 19.8519 33.5541C19.7837 33.451 19.6035 33.2964 19.5125 33.1951C19.4518 33.1289 19.3911 33.0607 19.3399 32.9871L19.9828 33.4989L20.0492 32.4164L20.0814 32.3925V32.3906Z" fill="#F6F5FF"/>
<path d="M2.07971 1.48633L2.14609 2.59092L2.78902 2.07913C2.69798 2.19511 2.59936 2.30557 2.50074 2.41603C2.44195 2.48046 2.32057 2.58172 2.27695 2.64799C2.26367 2.66825 2.25609 2.67929 2.26178 2.70507L3.45091 2.77686L2.26178 2.86523L2.78902 3.48933C2.71315 3.43962 2.64298 3.37887 2.57471 3.3218C2.4704 3.23343 2.30919 3.05669 2.20488 2.99226C2.18402 2.97937 2.17264 2.97201 2.14609 2.97753L2.05506 4.0987L1.98109 2.97753C1.95644 2.97201 1.94316 2.97937 1.9223 2.99226C1.76868 3.08799 1.55816 3.32732 1.40454 3.45067C1.39316 3.45987 1.34385 3.49485 1.33816 3.49117L1.8654 2.86707L0.67627 2.7787L1.8654 2.70691C1.86919 2.68113 1.8635 2.67009 1.85023 2.64983C1.78195 2.54674 1.60178 2.3921 1.51075 2.29084C1.45006 2.22457 1.38937 2.15645 1.33816 2.08281L1.98109 2.5946L2.04747 1.5121L2.07971 1.48817V1.48633Z" fill="#F6F5FF"/>
<path d="M20.0817 1.48828L20.148 2.59288L20.791 2.08108C20.6999 2.19706 20.6013 2.30752 20.5027 2.41798C20.4439 2.48242 20.3225 2.58367 20.2789 2.64995C20.2656 2.6702 20.258 2.68124 20.2637 2.70702L21.4529 2.77882L20.2637 2.86718L20.791 3.49128C20.7151 3.44157 20.6449 3.38082 20.5767 3.32375C20.4724 3.23538 20.3111 3.05865 20.2068 2.99421C20.186 2.98133 20.1746 2.97396 20.148 2.97948L20.057 4.10065L19.983 2.97948C19.9584 2.97396 19.9451 2.98133 19.9242 2.99421C19.7706 3.08994 19.5601 3.32928 19.4065 3.45262C19.3951 3.46183 19.3458 3.49681 19.3401 3.49312L19.8674 2.86903L18.6782 2.78066L19.8674 2.70886C19.8711 2.68308 19.8655 2.67204 19.8522 2.65179C19.7839 2.54869 19.6037 2.39405 19.5127 2.29279C19.452 2.22652 19.3913 2.1584 19.3401 2.08476L19.983 2.59656L20.0494 1.51406L20.0817 1.49012V1.48828Z" fill="#B4ACFF"/>
<g clip-path="url(#clip0_182_3024)">
<circle cx="10.9996" cy="18.2288" r="14.3401" fill="#695CDB"/>
<ellipse cx="11.0695" cy="18.4286" rx="9.74507" ry="9.74505" fill="#7A6DF0"/>
<ellipse cx="11.086" cy="18.446" rx="7.8502" ry="7.85031" fill="#7264ED"/>
<ellipse cx="11.1048" cy="18.465" rx="7.2073" ry="7.20721" fill="#543BD0"/>
<ellipse cx="11.0985" cy="18.4601" rx="5.58312" ry="5.5831" fill="#5F44E2"/>
<path d="M10.8438 17.4365C11.3997 17.3387 11.8332 17.5992 12.0965 18.0395C12.2032 18.2175 12.2488 18.4826 12.3321 18.6017C12.4511 18.7718 12.9743 18.9414 13.1692 19.1087C13.807 19.6551 13.3379 20.6562 12.5444 20.7753C11.918 20.8694 11.5108 20.5019 10.9301 20.5561C10.6772 20.5797 10.4158 20.7406 10.1797 20.7753C9.35797 20.8967 8.62449 20.3809 8.74252 19.5703C8.83923 18.9071 9.66099 18.9873 9.88168 18.5637C9.93921 18.4529 9.94764 18.305 10.0101 18.1771C10.1659 17.8583 10.452 17.5056 10.8433 17.4365H10.8438Z" fill="white"/>
<path d="M10.0745 15.4487C10.9791 15.2878 11.1468 17.2716 10.1512 17.2871C9.32089 17.3004 9.20874 15.6028 10.0745 15.4487Z" fill="white"/>
<path d="M8.35474 16.6686C9.39015 16.4384 9.83826 18.4651 8.87292 18.4341C8.00102 18.4064 7.66446 16.8221 8.35474 16.6686Z" fill="white"/>
<path d="M13.9917 16.7838C14.6417 17.3154 13.7225 18.8432 12.9113 18.3309C12.1563 17.8538 13.2388 16.1686 13.9917 16.7838Z" fill="white"/>
<path d="M11.8589 15.4424C12.5997 15.3671 12.8771 16.7596 12.209 17.1771C11.206 17.8045 10.7976 15.5505 11.8589 15.4424Z" fill="white"/>
<path d="M17.0835 2.49316C17.2661 4.18983 18.6972 5.51179 20.4614 5.6748V30.7871C18.6969 30.9501 17.2657 32.2736 17.0835 33.9707H4.96436C4.78186 32.2739 3.35074 30.9511 1.58643 30.7881L1.58643 5.6748C3.35065 5.51178 4.78178 4.18982 4.96436 2.49316L17.0835 2.49316Z" stroke="#F6F5FF" stroke-width="0.735392" stroke-miterlimit="10"/>
<path d="M11.0969 6.45703L11.228 8.63928L12.4982 7.62817C12.3183 7.85731 12.1235 8.07553 11.9287 8.29376C11.8125 8.42105 11.5727 8.6211 11.4865 8.75203C11.4603 8.79204 11.4453 8.81386 11.4566 8.86478L13.8058 9.00663L11.4566 9.1812L12.4982 10.4142C12.3483 10.316 12.2097 10.196 12.0748 10.0832C11.8687 9.90863 11.5502 9.55946 11.3442 9.43216C11.3029 9.4067 11.2805 9.39216 11.228 9.40307L11.0482 11.6181L10.902 9.40307C10.8533 9.39216 10.8271 9.4067 10.7859 9.43216C10.4824 9.62129 10.0665 10.0941 9.763 10.3378C9.74052 10.356 9.6431 10.4251 9.63186 10.4178L10.6735 9.18485L8.32422 9.01026L10.6735 8.86842C10.681 8.8175 10.6697 8.79567 10.6435 8.75567C10.5086 8.55199 10.1527 8.24648 9.97282 8.04644C9.85292 7.9155 9.73303 7.78093 9.63186 7.63544L10.902 8.64655L11.0332 6.50795L11.0969 6.46067V6.45703Z" fill="#DEDBFF"/>
<path d="M11.1193 25.6992L11.2035 27.1002L12.0189 26.4511C11.9035 26.5982 11.7784 26.7383 11.6533 26.8784C11.5788 26.9601 11.4248 27.0885 11.3695 27.1726C11.3526 27.1982 11.343 27.2122 11.3502 27.2449L12.8584 27.336L11.3502 27.4481L12.0189 28.2396C11.9227 28.1766 11.8337 28.0995 11.7471 28.0271C11.6148 27.9151 11.4104 27.6909 11.2781 27.6092C11.2516 27.5928 11.2372 27.5835 11.2035 27.5905L11.0881 29.0125L10.9942 27.5905C10.963 27.5835 10.9461 27.5928 10.9197 27.6092C10.7248 27.7306 10.4579 28.0341 10.263 28.1906C10.2486 28.2023 10.186 28.2466 10.1788 28.2419L10.8475 27.4504L9.33936 27.3383L10.8475 27.2473C10.8523 27.2146 10.8451 27.2006 10.8283 27.1749C10.7417 27.0441 10.5132 26.848 10.3977 26.7196C10.3207 26.6355 10.2438 26.5491 10.1788 26.4557L10.9942 27.1048L11.0784 25.7319L11.1193 25.7016V25.6992Z" fill="#DEDBFF"/>
<path d="M2.9899 12.4453L3.04171 13.3074L3.5435 12.908C3.47245 12.9985 3.39548 13.0847 3.31851 13.1709C3.27262 13.2212 3.17789 13.3003 3.14384 13.352C3.13348 13.3678 3.12756 13.3764 3.132 13.3965L4.0601 13.4526L3.132 13.5215L3.5435 14.0086C3.48429 13.9698 3.42953 13.9224 3.37624 13.8779C3.29483 13.8089 3.16901 13.671 3.08759 13.6207C3.07131 13.6106 3.06243 13.6049 3.04171 13.6092L2.97066 14.4842L2.91293 13.6092C2.89369 13.6049 2.88332 13.6106 2.86704 13.6207C2.74714 13.6954 2.58284 13.8822 2.46294 13.9785C2.45406 13.9856 2.41557 14.0129 2.41113 14.0101L2.82263 13.523L1.89453 13.454L2.82263 13.398C2.82559 13.3778 2.82115 13.3692 2.81079 13.3534C2.7575 13.273 2.61688 13.1523 2.54583 13.0732C2.49846 13.0215 2.4511 12.9683 2.41113 12.9109L2.91293 13.3103L2.96474 12.4654L2.9899 12.4467V12.4453Z" fill="#DEDBFF"/>
<path d="M16.3898 17.0977L16.4416 17.9598L16.9434 17.5603C16.8724 17.6509 16.7954 17.7371 16.7184 17.8233C16.6725 17.8736 16.5778 17.9526 16.5437 18.0043C16.5334 18.0201 16.5275 18.0287 16.5319 18.0489L17.46 18.1049L16.5319 18.1739L16.9434 18.661C16.8842 18.6222 16.8294 18.5748 16.7761 18.5302C16.6947 18.4612 16.5689 18.3233 16.4875 18.273C16.4712 18.263 16.4623 18.2572 16.4416 18.2615L16.3706 19.1366L16.3128 18.2615C16.2936 18.2572 16.2832 18.263 16.2669 18.273C16.147 18.3477 15.9827 18.5345 15.8628 18.6308C15.854 18.638 15.8155 18.6653 15.811 18.6624L16.2225 18.1753L15.2944 18.1063L16.2225 18.0503C16.2255 18.0302 16.2211 18.0216 16.2107 18.0058C16.1574 17.9253 16.0168 17.8046 15.9457 17.7256C15.8984 17.6738 15.851 17.6207 15.811 17.5632L16.3128 17.9627L16.3646 17.1178L16.3898 17.0991V17.0977Z" fill="#DEDBFF"/>
</g>
<path fill-rule="evenodd" clip-rule="evenodd" d="M10.2952 34.3001L9.54224 33.1713L10.569 33.4167L11.0311 31.8789V34.3001H10.2952ZM11.7674 34.3001L12.5203 33.1713L11.4936 33.4167L11.0315 31.8789V34.3001H11.7674Z" fill="#F6F5FF"/>
<path fill-rule="evenodd" clip-rule="evenodd" d="M10.294 2.1237L9.54102 3.25251L10.5678 3.00712L11.0298 4.54492V2.1237H10.294ZM11.7662 2.1237L12.5192 3.25251L11.4924 3.00712L11.0304 4.54492V2.1237H11.7662Z" fill="#F6F5FF"/>
<defs>
<clipPath id="clip0_182_3024">
<rect width="19.6113" height="32.2137" fill="white" transform="translate(1.21826 2.125)"/>
</clipPath>
</defs>
</svg>
